<?xml version="1.0" encoding="UTF-8" standalone="no"?><svg xmlns="http://www.w3.org/2000/svg" xmlns:xlink="http://www.w3.org/1999/xlink" contentStyleType="text/css" height="1516px" preserveAspectRatio="none" style="width:1074px;height:1516px;background:#FFFFFF;" version="1.1" viewBox="0 0 1074 1516" width="1074px" zoomAndPan="magnify"><defs/><g><rect fill="none" height="27.6094" id="_title" style="stroke:none;stroke-width:1.0;" width="186" x="437.25" y="5"/><text fill="#000000" font-family="sans-serif" font-size="14" font-weight="bold" lengthAdjust="spacing" textLength="176" x="442.25" y="24.5332">CLASS_DIAGRAM_CLIENT</text><!--MD5=[fc61ff716031c17a00249d01ee49e9ce]
class Carte--><g id="elem_Carte"><rect codeLine="4" fill="#F1F1F1" height="136.0469" id="Carte" rx="2.5" ry="2.5" style="stroke:#181818;stroke-width:0.5;" width="179" x="166.5" y="1356.1094"/><ellipse cx="234.25" cy="1372.1094" fill="#ADD1B2" rx="11" ry="11" style="stroke:#181818;stroke-width:1.0;"/><path d="M237.0156,1367.9844 Q237.1719,1367.7656 237.3594,1367.6563 Q237.5469,1367.5469 237.7656,1367.5469 Q238.1406,1367.5469 238.375,1367.8125 Q238.6094,1368.0625 238.6094,1368.6719 L238.6094,1370.125 Q238.6094,1370.7344 238.375,1371 Q238.1406,1371.2656 237.7656,1371.2656 Q237.4219,1371.2656 237.2188,1371.0625 Q237.0156,1370.875 236.9063,1370.3594 Q236.8594,1370 236.6719,1369.8125 Q236.3438,1369.4375 235.7344,1369.2188 Q235.125,1369 234.5,1369 Q233.7344,1369 233.0938,1369.3281 Q232.4688,1369.6563 231.9688,1370.4063 Q231.4844,1371.1563 231.4844,1372.1875 L231.4844,1373.2813 Q231.4844,1374.5156 232.375,1375.3438 Q233.2656,1376.1563 234.8594,1376.1563 Q235.7969,1376.1563 236.4531,1375.9063 Q236.8438,1375.75 237.2656,1375.3125 Q237.5313,1375.0469 237.6719,1374.9688 Q237.8281,1374.8906 238.0313,1374.8906 Q238.3594,1374.8906 238.6094,1375.1563 Q238.875,1375.4063 238.875,1375.75 Q238.875,1376.0938 238.5313,1376.5 Q238.0313,1377.0781 237.2344,1377.4063 Q236.1563,1377.8594 234.8594,1377.8594 Q233.3438,1377.8594 232.1406,1377.2344 Q231.1563,1376.7344 230.4688,1375.6719 Q229.7813,1374.5938 229.7813,1373.3125 L229.7813,1372.1563 Q229.7813,1370.8281 230.3906,1369.6875 Q231.0156,1368.5313 232.1094,1367.9219 Q233.2031,1367.2969 234.4375,1367.2969 Q235.1719,1367.2969 235.8125,1367.4688 Q236.4688,1367.625 237.0156,1367.9844 Z " fill="#000000"/><text fill="#000000" font-family="sans-serif" font-size="14" lengthAdjust="spacing" textLength="35" x="254.75" y="1377.8379">Carte</text><line style="stroke:#181818;stroke-width:0.5;" x1="167.5" x2="344.5" y1="1388.1094" y2="1388.1094"/><rect fill="none" height="6" style="stroke:#C82930;stroke-width:1.0;" width="6" x="174.5" y="1399.4141"/><text fill="#000000" font-family="sans-serif" font-size="14" lengthAdjust="spacing" textLength="106" x="186.5" y="1406.6426">lista: List&lt;Carta&gt;</text><line style="stroke:#181818;stroke-width:0.5;" x1="167.5" x2="344.5" y1="1413.7188" y2="1413.7188"/><ellipse cx="177.5" cy="1428.0234" fill="#84BE84" rx="3" ry="3" style="stroke:#038048;stroke-width:1.0;"/><text fill="#000000" font-family="sans-serif" font-size="14" lengthAdjust="spacing" textLength="45" x="186.5" y="1432.252">Carte()</text><ellipse cx="177.5" cy="1445.6328" fill="#84BE84" rx="3" ry="3" style="stroke:#038048;stroke-width:1.0;"/><text fill="#000000" font-family="sans-serif" font-size="14" lengthAdjust="spacing" textLength="153" x="186.5" y="1449.8613">addCarta(c: Carta): void</text><ellipse cx="177.5" cy="1463.2422" fill="#84BE84" rx="3" ry="3" style="stroke:#038048;stroke-width:1.0;"/><text fill="#000000" font-family="sans-serif" font-size="14" lengthAdjust="spacing" textLength="121" x="186.5" y="1467.4707">svuotaCarte(): void</text><ellipse cx="177.5" cy="1480.8516" fill="#84BE84" rx="3" ry="3" style="stroke:#038048;stroke-width:1.0;"/><text fill="#000000" font-family="sans-serif" font-size="14" lengthAdjust="spacing" textLength="57" x="186.5" y="1485.0801">size(): int</text></g><!--MD5=[3e810361228f291838b77424283ffc08]
class Carta--><g id="elem_Carta"><rect codeLine="13" fill="#F1F1F1" height="224.0938" id="Carta" rx="2.5" ry="2.5" style="stroke:#181818;stroke-width:0.5;" width="385" x="682.5" y="63.1094"/><ellipse cx="853.25" cy="79.1094" fill="#ADD1B2" rx="11" ry="11" style="stroke:#181818;stroke-width:1.0;"/><path d="M856.0156,74.9844 Q856.1719,74.7656 856.3594,74.6563 Q856.5469,74.5469 856.7656,74.5469 Q857.1406,74.5469 857.375,74.8125 Q857.6094,75.0625 857.6094,75.6719 L857.6094,77.125 Q857.6094,77.7344 857.375,78 Q857.1406,78.2656 856.7656,78.2656 Q856.4219,78.2656 856.2188,78.0625 Q856.0156,77.875 855.9063,77.3594 Q855.8594,77 855.6719,76.8125 Q855.3438,76.4375 854.7344,76.2188 Q854.125,76 853.5,76 Q852.7344,76 852.0938,76.3281 Q851.4688,76.6563 850.9688,77.4063 Q850.4844,78.1563 850.4844,79.1875 L850.4844,80.2813 Q850.4844,81.5156 851.375,82.3438 Q852.2656,83.1563 853.8594,83.1563 Q854.7969,83.1563 855.4531,82.9063 Q855.8438,82.75 856.2656,82.3125 Q856.5313,82.0469 856.6719,81.9688 Q856.8281,81.8906 857.0313,81.8906 Q857.3594,81.8906 857.6094,82.1563 Q857.875,82.4063 857.875,82.75 Q857.875,83.0938 857.5313,83.5 Q857.0313,84.0781 856.2344,84.4063 Q855.1563,84.8594 853.8594,84.8594 Q852.3438,84.8594 851.1406,84.2344 Q850.1563,83.7344 849.4688,82.6719 Q848.7813,81.5938 848.7813,80.3125 L848.7813,79.1563 Q848.7813,77.8281 849.3906,76.6875 Q850.0156,75.5313 851.1094,74.9219 Q852.2031,74.2969 853.4375,74.2969 Q854.1719,74.2969 854.8125,74.4688 Q855.4688,74.625 856.0156,74.9844 Z " fill="#000000"/><text fill="#000000" font-family="sans-serif" font-size="14" lengthAdjust="spacing" textLength="35" x="873.75" y="84.8379">Carta</text><line style="stroke:#181818;stroke-width:0.5;" x1="683.5" x2="1066.5" y1="95.1094" y2="95.1094"/><rect fill="none" height="6" style="stroke:#C82930;stroke-width:1.0;" width="6" x="690.5" y="106.4141"/><text fill="#000000" font-family="sans-serif" font-size="14" lengthAdjust="spacing" textLength="93" x="702.5" y="113.6426">numero: String</text><rect fill="none" height="6" style="stroke:#C82930;stroke-width:1.0;" width="6" x="690.5" y="124.0234"/><text fill="#000000" font-family="sans-serif" font-size="14" lengthAdjust="spacing" textLength="79" x="702.5" y="131.252">seme: String</text><rect fill="none" height="6" style="stroke:#C82930;stroke-width:1.0;" width="6" x="690.5" y="141.6328"/><text fill="#000000" font-family="sans-serif" font-size="14" lengthAdjust="spacing" textLength="126" x="702.5" y="148.8613">isScoperta: boolean</text><line style="stroke:#181818;stroke-width:0.5;" x1="683.5" x2="1066.5" y1="155.9375" y2="155.9375"/><ellipse cx="693.5" cy="170.2422" fill="#84BE84" rx="3" ry="3" style="stroke:#038048;stroke-width:1.0;"/><text fill="#000000" font-family="sans-serif" font-size="14" lengthAdjust="spacing" textLength="359" x="702.5" y="174.4707">Carta(numero: String, seme: String, isScoperta: boolean)</text><ellipse cx="693.5" cy="187.8516" fill="#84BE84" rx="3" ry="3" style="stroke:#038048;stroke-width:1.0;"/><text fill="#000000" font-family="sans-serif" font-size="14" lengthAdjust="spacing" textLength="124" x="702.5" y="192.0801">getNumero(): String</text><ellipse cx="693.5" cy="205.4609" fill="#84BE84" rx="3" ry="3" style="stroke:#038048;stroke-width:1.0;"/><text fill="#000000" font-family="sans-serif" font-size="14" lengthAdjust="spacing" textLength="205" x="702.5" y="209.6895">setNumero(numero: String): void</text><ellipse cx="693.5" cy="223.0703" fill="#84BE84" rx="3" ry="3" style="stroke:#038048;stroke-width:1.0;"/><text fill="#000000" font-family="sans-serif" font-size="14" lengthAdjust="spacing" textLength="111" x="702.5" y="227.2988">getSeme(): String</text><ellipse cx="693.5" cy="240.6797" fill="#84BE84" rx="3" ry="3" style="stroke:#038048;stroke-width:1.0;"/><text fill="#000000" font-family="sans-serif" font-size="14" lengthAdjust="spacing" textLength="178" x="702.5" y="244.9082">setSeme(seme: String): void</text><ellipse cx="693.5" cy="258.2891" fill="#84BE84" rx="3" ry="3" style="stroke:#038048;stroke-width:1.0;"/><text fill="#000000" font-family="sans-serif" font-size="14" lengthAdjust="spacing" textLength="156" x="702.5" y="262.5176">getIsScoperta(): boolean</text><ellipse cx="693.5" cy="275.8984" fill="#84BE84" rx="3" ry="3" style="stroke:#038048;stroke-width:1.0;"/><text fill="#000000" font-family="sans-serif" font-size="14" lengthAdjust="spacing" textLength="246" x="702.5" y="280.127">setScoperta(isScoperta: boolean): void</text></g><!--MD5=[fc7a36eb163e8c358e94b2a021077052]
class Comunicazione--><g id="elem_Comunicazione"><rect codeLine="27" fill="#F1F1F1" height="171.2656" id="Comunicazione" rx="2.5" ry="2.5" style="stroke:#181818;stroke-width:0.5;" width="410" x="381" y="1338.6094"/><ellipse cx="533.75" cy="1354.6094" fill="#ADD1B2" rx="11" ry="11" style="stroke:#181818;stroke-width:1.0;"/><path d="M536.5156,1350.4844 Q536.6719,1350.2656 536.8594,1350.1563 Q537.0469,1350.0469 537.2656,1350.0469 Q537.6406,1350.0469 537.875,1350.3125 Q538.1094,1350.5625 538.1094,1351.1719 L538.1094,1352.625 Q538.1094,1353.2344 537.875,1353.5 Q537.6406,1353.7656 537.2656,1353.7656 Q536.9219,1353.7656 536.7188,1353.5625 Q536.5156,1353.375 536.4063,1352.8594 Q536.3594,1352.5 536.1719,1352.3125 Q535.8438,1351.9375 535.2344,1351.7188 Q534.625,1351.5 534,1351.5 Q533.2344,1351.5 532.5938,1351.8281 Q531.9688,1352.1563 531.4688,1352.9063 Q530.9844,1353.6563 530.9844,1354.6875 L530.9844,1355.7813 Q530.9844,1357.0156 531.875,1357.8438 Q532.7656,1358.6563 534.3594,1358.6563 Q535.2969,1358.6563 535.9531,1358.4063 Q536.3438,1358.25 536.7656,1357.8125 Q537.0313,1357.5469 537.1719,1357.4688 Q537.3281,1357.3906 537.5313,1357.3906 Q537.8594,1357.3906 538.1094,1357.6563 Q538.375,1357.9063 538.375,1358.25 Q538.375,1358.5938 538.0313,1359 Q537.5313,1359.5781 536.7344,1359.9063 Q535.6563,1360.3594 534.3594,1360.3594 Q532.8438,1360.3594 531.6406,1359.7344 Q530.6563,1359.2344 529.9688,1358.1719 Q529.2813,1357.0938 529.2813,1355.8125 L529.2813,1354.6563 Q529.2813,1353.3281 529.8906,1352.1875 Q530.5156,1351.0313 531.6094,1350.4219 Q532.7031,1349.7969 533.9375,1349.7969 Q534.6719,1349.7969 535.3125,1349.9688 Q535.9688,1350.125 536.5156,1350.4844 Z " fill="#000000"/><text fill="#000000" font-family="sans-serif" font-size="14" lengthAdjust="spacing" textLength="96" x="554.25" y="1360.3379">Comunicazione</text><line style="stroke:#181818;stroke-width:0.5;" x1="382" x2="790" y1="1370.6094" y2="1370.6094"/><rect fill="none" height="6" style="stroke:#C82930;stroke-width:1.0;" width="6" x="389" y="1381.9141"/><text fill="#000000" font-family="sans-serif" font-size="14" lengthAdjust="spacing" textLength="127" x="401" y="1389.1426">clientSocket: Socket</text><rect fill="none" height="6" style="stroke:#C82930;stroke-width:1.0;" width="6" x="389" y="1399.5234"/><text fill="#000000" font-family="sans-serif" font-size="14" lengthAdjust="spacing" textLength="140" x="401" y="1406.752">input: BufferedReader</text><rect fill="none" height="6" style="stroke:#C82930;stroke-width:1.0;" width="6" x="389" y="1417.1328"/><text fill="#000000" font-family="sans-serif" font-size="14" lengthAdjust="spacing" textLength="115" x="401" y="1424.3613">output: PrintWriter</text><line style="stroke:#181818;stroke-width:0.5;" x1="382" x2="790" y1="1431.4375" y2="1431.4375"/><ellipse cx="392" cy="1445.7422" fill="#84BE84" rx="3" ry="3" style="stroke:#038048;stroke-width:1.0;"/><text fill="#000000" font-family="sans-serif" font-size="14" lengthAdjust="spacing" textLength="384" x="401" y="1449.9707">Comunicazione() throws UnknownHostException, IOException</text><ellipse cx="392" cy="1463.3516" fill="#84BE84" rx="3" ry="3" style="stroke:#038048;stroke-width:1.0;"/><text fill="#000000" font-family="sans-serif" font-size="14" lengthAdjust="spacing" textLength="210" x="401" y="1467.5801">input(): String throws IOException</text><ellipse cx="392" cy="1480.9609" fill="#84BE84" rx="3" ry="3" style="stroke:#038048;stroke-width:1.0;"/><text fill="#000000" font-family="sans-serif" font-size="14" lengthAdjust="spacing" textLength="162" x="401" y="1485.1895">output(mess: String): void</text><ellipse cx="392" cy="1498.5703" fill="#84BE84" rx="3" ry="3" style="stroke:#038048;stroke-width:1.0;"/><text fill="#000000" font-family="sans-serif" font-size="14" lengthAdjust="spacing" textLength="299" x="401" y="1502.7988">terminateConnection(): void throws IOException</text></g><!--MD5=[0e005bfa9b2efe07274e728514cf4c87]
class Gioco--><g id="elem_Gioco"><rect codeLine="38" fill="#F1F1F1" height="206.4844" id="Gioco" rx="2.5" ry="2.5" style="stroke:#181818;stroke-width:0.5;" width="290" x="182" y="1054.6094"/><ellipse cx="304.25" cy="1070.6094" fill="#ADD1B2" rx="11" ry="11" style="stroke:#181818;stroke-width:1.0;"/><path d="M307.0156,1066.4844 Q307.1719,1066.2656 307.3594,1066.1563 Q307.5469,1066.0469 307.7656,1066.0469 Q308.1406,1066.0469 308.375,1066.3125 Q308.6094,1066.5625 308.6094,1067.1719 L308.6094,1068.625 Q308.6094,1069.2344 308.375,1069.5 Q308.1406,1069.7656 307.7656,1069.7656 Q307.4219,1069.7656 307.2188,1069.5625 Q307.0156,1069.375 306.9063,1068.8594 Q306.8594,1068.5 306.6719,1068.3125 Q306.3438,1067.9375 305.7344,1067.7188 Q305.125,1067.5 304.5,1067.5 Q303.7344,1067.5 303.0938,1067.8281 Q302.4688,1068.1563 301.9688,1068.9063 Q301.4844,1069.6563 301.4844,1070.6875 L301.4844,1071.7813 Q301.4844,1073.0156 302.375,1073.8438 Q303.2656,1074.6563 304.8594,1074.6563 Q305.7969,1074.6563 306.4531,1074.4063 Q306.8438,1074.25 307.2656,1073.8125 Q307.5313,1073.5469 307.6719,1073.4688 Q307.8281,1073.3906 308.0313,1073.3906 Q308.3594,1073.3906 308.6094,1073.6563 Q308.875,1073.9063 308.875,1074.25 Q308.875,1074.5938 308.5313,1075 Q308.0313,1075.5781 307.2344,1075.9063 Q306.1563,1076.3594 304.8594,1076.3594 Q303.3438,1076.3594 302.1406,1075.7344 Q301.1563,1075.2344 300.4688,1074.1719 Q299.7813,1073.0938 299.7813,1071.8125 L299.7813,1070.6563 Q299.7813,1069.3281 300.3906,1068.1875 Q301.0156,1067.0313 302.1094,1066.4219 Q303.2031,1065.7969 304.4375,1065.7969 Q305.1719,1065.7969 305.8125,1065.9688 Q306.4688,1066.125 307.0156,1066.4844 Z " fill="#000000"/><text fill="#000000" font-family="sans-serif" font-size="14" lengthAdjust="spacing" textLength="37" x="324.75" y="1076.3379">Gioco</text><line style="stroke:#181818;stroke-width:0.5;" x1="183" x2="471" y1="1086.6094" y2="1086.6094"/><rect fill="none" height="6" style="stroke:#C82930;stroke-width:1.0;" width="6" x="190" y="1097.9141"/><text fill="#000000" font-family="sans-serif" font-size="14" lengthAdjust="spacing" textLength="103" x="202" y="1105.1426">game: GuiGame</text><rect fill="none" height="6" style="stroke:#C82930;stroke-width:1.0;" width="6" x="190" y="1115.5234"/><text fill="#000000" font-family="sans-serif" font-size="14" lengthAdjust="spacing" textLength="129" x="202" y="1122.752">isYourTurn: boolean</text><rect fill="none" height="6" style="stroke:#C82930;stroke-width:1.0;" width="6" x="190" y="1133.1328"/><text fill="#000000" font-family="sans-serif" font-size="14" lengthAdjust="spacing" textLength="110" x="202" y="1140.3613">haiVinto: boolean</text><line style="stroke:#181818;stroke-width:0.5;" x1="183" x2="471" y1="1147.4375" y2="1147.4375"/><ellipse cx="193" cy="1161.7422" fill="#84BE84" rx="3" ry="3" style="stroke:#038048;stroke-width:1.0;"/><text fill="#000000" font-family="sans-serif" font-size="14" lengthAdjust="spacing" textLength="150" x="202" y="1165.9707">Gioco(game: GuiGame)</text><ellipse cx="193" cy="1179.3516" fill="#84BE84" rx="3" ry="3" style="stroke:#038048;stroke-width:1.0;"/><text fill="#000000" font-family="sans-serif" font-size="14" lengthAdjust="spacing" textLength="231" x="202" y="1183.5801">scommetti(): void throws IOException</text><ellipse cx="193" cy="1196.9609" fill="#84BE84" rx="3" ry="3" style="stroke:#038048;stroke-width:1.0;"/><text fill="#000000" font-family="sans-serif" font-size="14" lengthAdjust="spacing" textLength="206" x="202" y="1201.1895">passa(): void throws IOException</text><rect fill="#F24D5C" height="6" style="stroke:#C82930;stroke-width:1.0;" width="6" x="190" y="1211.5703"/><text fill="#000000" font-family="sans-serif" font-size="14" lengthAdjust="spacing" textLength="264" x="202" y="1218.7988">controlloVincita(): void throws IOException</text><ellipse cx="193" cy="1232.1797" fill="#84BE84" rx="3" ry="3" style="stroke:#038048;stroke-width:1.0;"/><text fill="#000000" font-family="sans-serif" font-size="14" lengthAdjust="spacing" textLength="239" x="202" y="1236.4082">riceviTurno(): void throws IOException</text><ellipse cx="193" cy="1249.7891" fill="#84BE84" rx="3" ry="3" style="stroke:#038048;stroke-width:1.0;"/><text fill="#000000" font-family="sans-serif" font-size="14" lengthAdjust="spacing" textLength="159" x="202" y="1254.0176">svuotaCarteTurno(): void</text></g><!--MD5=[383eb7eef20d3b3c3557c1a321b367e7]
class GuiGame--><g id="elem_GuiGame"><rect codeLine="51" fill="#F1F1F1" height="593.8906" id="GuiGame" rx="2.5" ry="2.5" style="stroke:#181818;stroke-width:0.5;" width="640" x="7" y="382.6094"/><ellipse cx="292.75" cy="398.6094" fill="#ADD1B2" rx="11" ry="11" style="stroke:#181818;stroke-width:1.0;"/><path d="M295.5156,394.4844 Q295.6719,394.2656 295.8594,394.1563 Q296.0469,394.0469 296.2656,394.0469 Q296.6406,394.0469 296.875,394.3125 Q297.1094,394.5625 297.1094,395.1719 L297.1094,396.625 Q297.1094,397.2344 296.875,397.5 Q296.6406,397.7656 296.2656,397.7656 Q295.9219,397.7656 295.7188,397.5625 Q295.5156,397.375 295.4063,396.8594 Q295.3594,396.5 295.1719,396.3125 Q294.8438,395.9375 294.2344,395.7188 Q293.625,395.5 293,395.5 Q292.2344,395.5 291.5938,395.8281 Q290.9688,396.1563 290.4688,396.9063 Q289.9844,397.6563 289.9844,398.6875 L289.9844,399.7813 Q289.9844,401.0156 290.875,401.8438 Q291.7656,402.6563 293.3594,402.6563 Q294.2969,402.6563 294.9531,402.4063 Q295.3438,402.25 295.7656,401.8125 Q296.0313,401.5469 296.1719,401.4688 Q296.3281,401.3906 296.5313,401.3906 Q296.8594,401.3906 297.1094,401.6563 Q297.375,401.9063 297.375,402.25 Q297.375,402.5938 297.0313,403 Q296.5313,403.5781 295.7344,403.9063 Q294.6563,404.3594 293.3594,404.3594 Q291.8438,404.3594 290.6406,403.7344 Q289.6563,403.2344 288.9688,402.1719 Q288.2813,401.0938 288.2813,399.8125 L288.2813,398.6563 Q288.2813,397.3281 288.8906,396.1875 Q289.5156,395.0313 290.6094,394.4219 Q291.7031,393.7969 292.9375,393.7969 Q293.6719,393.7969 294.3125,393.9688 Q294.9688,394.125 295.5156,394.4844 Z " fill="#000000"/><text fill="#000000" font-family="sans-serif" font-size="14" lengthAdjust="spacing" textLength="60" x="313.25" y="404.3379">GuiGame</text><line style="stroke:#181818;stroke-width:0.5;" x1="8" x2="646" y1="414.6094" y2="414.6094"/><rect fill="none" height="6" style="stroke:#C82930;stroke-width:1.0;" width="6" x="15" y="425.9141"/><text fill="#000000" font-family="sans-serif" font-size="14" lengthAdjust="spacing" textLength="205" x="27" y="433.1426">immagineSfondo: BufferedImage</text><rect fill="none" height="6" style="stroke:#C82930;stroke-width:1.0;" width="6" x="15" y="443.5234"/><text fill="#000000" font-family="sans-serif" font-size="14" lengthAdjust="spacing" textLength="149" x="27" y="450.752">pannelloSfondo: JPanel</text><rect fill="none" height="6" style="stroke:#C82930;stroke-width:1.0;" width="6" x="15" y="461.1328"/><text fill="#000000" font-family="sans-serif" font-size="14" lengthAdjust="spacing" textLength="203" x="27" y="468.3613">contenitore: GridBagConstraints</text><rect fill="none" height="6" style="stroke:#C82930;stroke-width:1.0;" width="6" x="15" y="478.7422"/><text fill="#000000" font-family="sans-serif" font-size="14" lengthAdjust="spacing" textLength="222" x="27" y="485.9707">menuTendina: JComboBox&lt;String&gt;</text><rect fill="none" height="6" style="stroke:#C82930;stroke-width:1.0;" width="6" x="15" y="496.3516"/><text fill="#000000" font-family="sans-serif" font-size="14" lengthAdjust="spacing" textLength="184" x="27" y="503.5801">imgGiocatore: BufferedImage</text><rect fill="none" height="6" style="stroke:#C82930;stroke-width:1.0;" width="6" x="15" y="513.9609"/><text fill="#000000" font-family="sans-serif" font-size="14" lengthAdjust="spacing" textLength="164" x="27" y="521.1895">imgDealer: BufferedImage</text><rect fill="none" height="6" style="stroke:#C82930;stroke-width:1.0;" width="6" x="15" y="531.5703"/><text fill="#000000" font-family="sans-serif" font-size="14" lengthAdjust="spacing" textLength="154" x="27" y="538.7988">imgcarta: BufferedImage</text><rect fill="none" height="6" style="stroke:#C82930;stroke-width:1.0;" width="6" x="15" y="549.1797"/><text fill="#000000" font-family="sans-serif" font-size="14" lengthAdjust="spacing" textLength="105" x="27" y="556.4082">isClose: boolean</text><rect fill="none" height="6" style="stroke:#C82930;stroke-width:1.0;" width="6" x="15" y="566.7891"/><text fill="#000000" font-family="sans-serif" font-size="14" lengthAdjust="spacing" textLength="71" x="27" y="574.0176">puntata: int</text><rect fill="none" height="6" style="stroke:#C82930;stroke-width:1.0;" width="6" x="15" y="584.3984"/><text fill="#000000" font-family="sans-serif" font-size="14" lengthAdjust="spacing" textLength="145" x="27" y="591.627">isScommesso: boolean</text><rect fill="none" height="6" style="stroke:#C82930;stroke-width:1.0;" width="6" x="15" y="602.0078"/><text fill="#000000" font-family="sans-serif" font-size="14" lengthAdjust="spacing" textLength="120" x="27" y="609.2363">isPassato: boolean</text><rect fill="none" height="6" style="stroke:#C82930;stroke-width:1.0;" width="6" x="15" y="619.6172"/><text fill="#000000" font-family="sans-serif" font-size="14" lengthAdjust="spacing" textLength="154" x="27" y="626.8457">isAbbandonato: boolean</text><rect fill="none" height="6" style="stroke:#C82930;stroke-width:1.0;" width="6" x="15" y="637.2266"/><text fill="#000000" font-family="sans-serif" font-size="14" lengthAdjust="spacing" textLength="100" x="27" y="644.4551">isOver: boolean</text><rect fill="none" height="6" style="stroke:#C82930;stroke-width:1.0;" width="6" x="15" y="654.8359"/><text fill="#000000" font-family="sans-serif" font-size="14" lengthAdjust="spacing" textLength="118" x="27" y="662.0645">scommetti: JButton</text><rect fill="none" height="6" style="stroke:#C82930;stroke-width:1.0;" width="6" x="15" y="672.4453"/><text fill="#000000" font-family="sans-serif" font-size="14" lengthAdjust="spacing" textLength="93" x="27" y="679.6738">passa: JButton</text><rect fill="none" height="6" style="stroke:#C82930;stroke-width:1.0;" width="6" x="15" y="690.0547"/><text fill="#000000" font-family="sans-serif" font-size="14" lengthAdjust="spacing" textLength="198" x="27" y="697.2832">communication: Comunicazione</text><rect fill="none" height="6" style="stroke:#C82930;stroke-width:1.0;" width="6" x="15" y="707.6641"/><text fill="#000000" font-family="sans-serif" font-size="14" lengthAdjust="spacing" textLength="71" x="27" y="714.8926">play: Gioco</text><rect fill="none" height="6" style="stroke:#C82930;stroke-width:1.0;" width="6" x="15" y="725.2734"/><text fill="#000000" font-family="sans-serif" font-size="14" lengthAdjust="spacing" textLength="75" x="27" y="732.502">carte: Carte</text><rect fill="none" height="6" style="stroke:#C82930;stroke-width:1.0;" width="6" x="15" y="742.8828"/><text fill="#000000" font-family="sans-serif" font-size="14" lengthAdjust="spacing" textLength="66" x="27" y="750.1113">flop: Carte</text><line style="stroke:#181818;stroke-width:0.5;" x1="8" x2="646" y1="757.1875" y2="757.1875"/><ellipse cx="18" cy="771.4922" fill="#84BE84" rx="3" ry="3" style="stroke:#038048;stroke-width:1.0;"/><text fill="#000000" font-family="sans-serif" font-size="14" lengthAdjust="spacing" textLength="549" x="27" y="775.7207">GuiGame(communication: Comunicazione, carte: Carte, flop: Carte) throws IOException</text><rect fill="#F24D5C" height="6" style="stroke:#C82930;stroke-width:1.0;" width="6" x="15" y="786.1016"/><text fill="#000000" font-family="sans-serif" font-size="14" lengthAdjust="spacing" textLength="614" x="27" y="793.3301">addComponent(daSu: int, daSinistra: int, daGiu: int, daDestra: int, component: JComponent): void</text><rect fill="#F24D5C" height="6" style="stroke:#C82930;stroke-width:1.0;" width="6" x="15" y="803.7109"/><text fill="#000000" font-family="sans-serif" font-size="14" lengthAdjust="spacing" textLength="214" x="27" y="810.9395">creaPannelloConSfondo(): JPanel</text><rect fill="#F24D5C" height="6" style="stroke:#C82930;stroke-width:1.0;" width="6" x="15" y="821.3203"/><text fill="#000000" font-family="sans-serif" font-size="14" lengthAdjust="spacing" textLength="212" x="27" y="828.5488">disegnaSfondo(g: Graphics): void</text><rect fill="#F24D5C" height="6" style="stroke:#C82930;stroke-width:1.0;" width="6" x="15" y="838.9297"/><text fill="#000000" font-family="sans-serif" font-size="14" lengthAdjust="spacing" textLength="375" x="27" y="846.1582">actionRules(): void throws IOException, URISyntaxException</text><rect fill="#F24D5C" height="6" style="stroke:#C82930;stroke-width:1.0;" width="6" x="15" y="856.5391"/><text fill="#000000" font-family="sans-serif" font-size="14" lengthAdjust="spacing" textLength="425" x="27" y="863.7676">exploreUrl(url: String): void throws IOException, URISyntaxException</text><rect fill="#F24D5C" height="6" style="stroke:#C82930;stroke-width:1.0;" width="6" x="15" y="874.1484"/><text fill="#000000" font-family="sans-serif" font-size="14" lengthAdjust="spacing" textLength="358" x="27" y="881.377">leftGame(): void throws IOException, URISyntaxException</text><rect fill="#F24D5C" height="6" style="stroke:#C82930;stroke-width:1.0;" width="6" x="15" y="891.7578"/><text fill="#000000" font-family="sans-serif" font-size="14" lengthAdjust="spacing" textLength="472" x="27" y="898.9863">resizeImage(img: BufferedImage, larghezza: int, altezza: int): BufferedImage</text><ellipse cx="18" cy="912.3672" fill="#84BE84" rx="3" ry="3" style="stroke:#038048;stroke-width:1.0;"/><text fill="#000000" font-family="sans-serif" font-size="14" lengthAdjust="spacing" textLength="312" x="27" y="916.5957">inserisciErrore(message: String, title: String): void</text><ellipse cx="18" cy="929.9766" fill="#84BE84" rx="3" ry="3" style="stroke:#038048;stroke-width:1.0;"/><text fill="#000000" font-family="sans-serif" font-size="14" lengthAdjust="spacing" textLength="297" x="27" y="934.2051">inserisciMex(message: String, title: String): void</text><ellipse cx="18" cy="947.5859" fill="#84BE84" rx="3" ry="3" style="stroke:#038048;stroke-width:1.0;"/><text fill="#000000" font-family="sans-serif" font-size="14" lengthAdjust="spacing" textLength="288" x="27" y="951.8145">mostraManoIniziale(): void throws IOException</text><ellipse cx="18" cy="965.1953" fill="#84BE84" rx="3" ry="3" style="stroke:#038048;stroke-width:1.0;"/><text fill="#000000" font-family="sans-serif" font-size="14" lengthAdjust="spacing" textLength="281" x="27" y="969.4238">mostraFlopIniziale(): void throws IOException</text></g><!--MD5=[fdb08a63b2e9abb07cc1976bbea0a697]
class GuiStart--><g id="elem_GuiStart"><rect codeLine="86" fill="#F1F1F1" height="259.3125" id="GuiStart" rx="2.5" ry="2.5" style="stroke:#181818;stroke-width:0.5;" width="640" x="7" y="45.6094"/><ellipse cx="296.75" cy="61.6094" fill="#ADD1B2" rx="11" ry="11" style="stroke:#181818;stroke-width:1.0;"/><path d="M299.5156,57.4844 Q299.6719,57.2656 299.8594,57.1563 Q300.0469,57.0469 300.2656,57.0469 Q300.6406,57.0469 300.875,57.3125 Q301.1094,57.5625 301.1094,58.1719 L301.1094,59.625 Q301.1094,60.2344 300.875,60.5 Q300.6406,60.7656 300.2656,60.7656 Q299.9219,60.7656 299.7188,60.5625 Q299.5156,60.375 299.4063,59.8594 Q299.3594,59.5 299.1719,59.3125 Q298.8438,58.9375 298.2344,58.7188 Q297.625,58.5 297,58.5 Q296.2344,58.5 295.5938,58.8281 Q294.9688,59.1563 294.4688,59.9063 Q293.9844,60.6563 293.9844,61.6875 L293.9844,62.7813 Q293.9844,64.0156 294.875,64.8438 Q295.7656,65.6563 297.3594,65.6563 Q298.2969,65.6563 298.9531,65.4063 Q299.3438,65.25 299.7656,64.8125 Q300.0313,64.5469 300.1719,64.4688 Q300.3281,64.3906 300.5313,64.3906 Q300.8594,64.3906 301.1094,64.6563 Q301.375,64.9063 301.375,65.25 Q301.375,65.5938 301.0313,66 Q300.5313,66.5781 299.7344,66.9063 Q298.6563,67.3594 297.3594,67.3594 Q295.8438,67.3594 294.6406,66.7344 Q293.6563,66.2344 292.9688,65.1719 Q292.2813,64.0938 292.2813,62.8125 L292.2813,61.6563 Q292.2813,60.3281 292.8906,59.1875 Q293.5156,58.0313 294.6094,57.4219 Q295.7031,56.7969 296.9375,56.7969 Q297.6719,56.7969 298.3125,56.9688 Q298.9688,57.125 299.5156,57.4844 Z " fill="#000000"/><text fill="#000000" font-family="sans-serif" font-size="14" lengthAdjust="spacing" textLength="52" x="317.25" y="67.3379">GuiStart</text><line style="stroke:#181818;stroke-width:0.5;" x1="8" x2="646" y1="77.6094" y2="77.6094"/><rect fill="none" height="6" style="stroke:#C82930;stroke-width:1.0;" width="6" x="15" y="88.9141"/><text fill="#000000" font-family="sans-serif" font-size="14" lengthAdjust="spacing" textLength="205" x="27" y="96.1426">immagineSfondo: BufferedImage</text><rect fill="none" height="6" style="stroke:#C82930;stroke-width:1.0;" width="6" x="15" y="106.5234"/><text fill="#000000" font-family="sans-serif" font-size="14" lengthAdjust="spacing" textLength="149" x="27" y="113.752">pannelloSfondo: JPanel</text><rect fill="none" height="6" style="stroke:#C82930;stroke-width:1.0;" width="6" x="15" y="124.1328"/><text fill="#000000" font-family="sans-serif" font-size="14" lengthAdjust="spacing" textLength="203" x="27" y="131.3613">contenitore: GridBagConstraints</text><rect fill="none" height="6" style="stroke:#C82930;stroke-width:1.0;" width="6" x="15" y="141.7422"/><text fill="#000000" font-family="sans-serif" font-size="14" lengthAdjust="spacing" textLength="83" x="27" y="148.9707">start: JButton</text><rect fill="none" height="6" style="stroke:#C82930;stroke-width:1.0;" width="6" x="15" y="159.3516"/><text fill="#000000" font-family="sans-serif" font-size="14" lengthAdjust="spacing" textLength="166" x="27" y="166.5801">imgCasino: BufferedImage</text><rect fill="none" height="6" style="stroke:#C82930;stroke-width:1.0;" width="6" x="15" y="176.9609"/><text fill="#000000" font-family="sans-serif" font-size="14" lengthAdjust="spacing" textLength="198" x="27" y="184.1895">communication: Comunicazione</text><rect fill="none" height="6" style="stroke:#C82930;stroke-width:1.0;" width="6" x="15" y="194.5703"/><text fill="#000000" font-family="sans-serif" font-size="14" lengthAdjust="spacing" textLength="103" x="27" y="201.7988">game: GuiGame</text><line style="stroke:#181818;stroke-width:0.5;" x1="8" x2="646" y1="208.875" y2="208.875"/><ellipse cx="18" cy="223.1797" fill="#84BE84" rx="3" ry="3" style="stroke:#038048;stroke-width:1.0;"/><text fill="#000000" font-family="sans-serif" font-size="14" lengthAdjust="spacing" textLength="186" x="27" y="227.4082">GuiStart() throws IOException</text><rect fill="#F24D5C" height="6" style="stroke:#C82930;stroke-width:1.0;" width="6" x="15" y="237.7891"/><text fill="#000000" font-family="sans-serif" font-size="14" lengthAdjust="spacing" textLength="614" x="27" y="245.0176">addComponent(daSu: int, daSinistra: int, daGiu: int, daDestra: int, component: JComponent): void</text><rect fill="#F24D5C" height="6" style="stroke:#C82930;stroke-width:1.0;" width="6" x="15" y="255.3984"/><text fill="#000000" font-family="sans-serif" font-size="14" lengthAdjust="spacing" textLength="214" x="27" y="262.627">creaPannelloConSfondo(): JPanel</text><rect fill="#F24D5C" height="6" style="stroke:#C82930;stroke-width:1.0;" width="6" x="15" y="273.0078"/><text fill="#000000" font-family="sans-serif" font-size="14" lengthAdjust="spacing" textLength="212" x="27" y="280.2363">disegnaSfondo(g: Graphics): void</text><rect fill="#F24D5C" height="6" style="stroke:#C82930;stroke-width:1.0;" width="6" x="15" y="290.6172"/><text fill="#000000" font-family="sans-serif" font-size="14" lengthAdjust="spacing" textLength="472" x="27" y="297.8457">resizeImage(img: BufferedImage, larghezza: int, altezza: int): BufferedImage</text></g><!--MD5=[fc8ebfba2ba814c0c061b570b70ba30f]
link GuiStart to GuiGame--><g id="link_GuiStart_GuiGame"><path codeLine="102" d="M327,304.8594 C327,327.6294 327,352.1694 327,377.4094 " fill="none" id="GuiStart-to-GuiGame" style="stroke:#181818;stroke-width:1.0;"/><polygon fill="#181818" points="327,382.4594,331,373.4594,327,377.4594,323,373.4594,327,382.4594" style="stroke:#181818;stroke-width:1.0;"/><text fill="#000000" font-family="sans-serif" font-size="13" lengthAdjust="spacing" textLength="32" x="328" y="349.1045">game</text></g><!--MD5=[67c8fe70ebd80bd8a35671d46fc547e4]
link GuiGame to Gioco--><g id="link_GuiGame_Gioco"><path codeLine="103" d="M327,976.6494 C327,1002.3194 327,1027.0194 327,1049.4694 " fill="none" id="GuiGame-to-Gioco" style="stroke:#181818;stroke-width:1.0;"/><polygon fill="#181818" points="327,1054.5194,331,1045.5194,327,1049.5194,323,1045.5194,327,1054.5194" style="stroke:#181818;stroke-width:1.0;"/><text fill="#000000" font-family="sans-serif" font-size="13" lengthAdjust="spacing" textLength="24" x="328" y="1021.1045">play</text></g><!--MD5=[d374bcf0efa2e7453b6a1d0be928297f]
link Gioco to Comunicazione--><g id="link_Gioco_Comunicazione"><path codeLine="104" d="M427.14,1260.8694 C450.92,1285.1594 476.09,1310.8694 499.22,1334.4894 " fill="none" id="Gioco-to-Comunicazione" style="stroke:#181818;stroke-width:1.0;"/><polygon fill="#181818" points="502.92,1338.2594,499.4775,1329.0317,499.4204,1334.6883,493.7638,1334.6312,502.92,1338.2594" style="stroke:#181818;stroke-width:1.0;"/><text fill="#000000" font-family="sans-serif" font-size="13" lengthAdjust="spacing" textLength="88" x="473" y="1305.1045">communication</text></g><!--MD5=[43be283d965cdb9ea9464056896b9be4]
link Gioco to Carte--><g id="link_Gioco_Carte"><path codeLine="105" d="M263.21,1260.9794 C259.11,1270.7394 255.59,1280.6994 253,1290.6094 C247.99,1309.7994 246.69,1331.0894 247.18,1350.8894 " fill="none" id="Gioco-to-Carte" style="stroke:#181818;stroke-width:1.0;"/><polygon fill="#181818" points="247.34,1355.8894,251.0553,1346.7682,247.1829,1350.8918,243.0593,1347.0195,247.34,1355.8894" style="stroke:#181818;stroke-width:1.0;"/><text fill="#000000" font-family="sans-serif" font-size="13" lengthAdjust="spacing" textLength="29" x="254" y="1305.1045">carte</text></g><!--MD5=[43be283d965cdb9ea9464056896b9be4]
link Gioco to Carte--><g id="link_Gioco_Carte"><path codeLine="106" d="M300.71,1260.7494 C296.51,1276.7794 292.17,1293.1494 288,1308.6094 C284.31,1322.2794 280.31,1336.8394 276.41,1350.8294 " fill="none" id="Gioco-to-Carte-1" style="stroke:#181818;stroke-width:1.0;"/><polygon fill="#181818" points="274.99,1355.9594,281.261,1348.365,276.3334,1351.1432,273.5552,1346.2156,274.99,1355.9594" style="stroke:#181818;stroke-width:1.0;"/><text fill="#000000" font-family="sans-serif" font-size="13" lengthAdjust="spacing" textLength="20" x="294" y="1305.1045">flop</text></g><!--MD5=[e7bba07f0cef8993b6e87d8298b43c96]
@startuml CLASS_DIAGRAM_CLIENT

title CLASS_DIAGRAM_CLIENT

class Carte {
  - lista: List<Carta>

  + Carte()
  + addCarta(c: Carta): void
  + svuotaCarte(): void
  + size(): int
}

class Carta {
  - numero: String
  - seme: String
  - isScoperta: boolean

  + Carta(numero: String, seme: String, isScoperta: boolean)
  + getNumero(): String
  + setNumero(numero: String): void
  + getSeme(): String
  + setSeme(seme: String): void
  + getIsScoperta(): boolean
  + setScoperta(isScoperta: boolean): void
}

class Comunicazione {
  - clientSocket: Socket
  - input: BufferedReader
  - output: PrintWriter

  + Comunicazione() throws UnknownHostException, IOException
  + input(): String throws IOException
  + output(mess: String): void
  + terminateConnection(): void throws IOException
}

class Gioco {
  - game: GuiGame
  - isYourTurn: boolean
  - haiVinto: boolean

  + Gioco(game: GuiGame)
  + scommetti(): void throws IOException
  + passa(): void throws IOException
  - controlloVincita(): void throws IOException
  + riceviTurno(): void throws IOException
  + svuotaCarteTurno(): void
}

class GuiGame {
  - immagineSfondo: BufferedImage
  - pannelloSfondo: JPanel
  - contenitore: GridBagConstraints
  - menuTendina: JComboBox<String>
  - imgGiocatore: BufferedImage
  - imgDealer: BufferedImage
  - imgcarta: BufferedImage
  - isClose: boolean
  - puntata: int
  - isScommesso: boolean
  - isPassato: boolean
  - isAbbandonato: boolean
  - isOver: boolean
  - scommetti: JButton
  - passa: JButton
  - communication: Comunicazione
  - play: Gioco
  - carte: Carte
  - flop: Carte

  + GuiGame(communication: Comunicazione, carte: Carte, flop: Carte) throws IOException
  - addComponent(daSu: int, daSinistra: int, daGiu: int, daDestra: int, component: JComponent): void
  - creaPannelloConSfondo(): JPanel
  - disegnaSfondo(g: Graphics): void
  - actionRules(): void throws IOException, URISyntaxException
  - exploreUrl(url: String): void throws IOException, URISyntaxException
  - leftGame(): void throws IOException, URISyntaxException
  - resizeImage(img: BufferedImage, larghezza: int, altezza: int): BufferedImage
  + inserisciErrore(message: String, title: String): void
  + inserisciMex(message: String, title: String): void
  + mostraManoIniziale(): void throws IOException
  + mostraFlopIniziale(): void throws IOException
}

class GuiStart {
  - immagineSfondo: BufferedImage
  - pannelloSfondo: JPanel
  - contenitore: GridBagConstraints
  - start: JButton
  - imgCasino: BufferedImage
  - communication: Comunicazione
  - game: GuiGame

  + GuiStart() throws IOException
  - addComponent(daSu: int, daSinistra: int, daGiu: int, daDestra: int, component: JComponent): void
  - creaPannelloConSfondo(): JPanel
  - disegnaSfondo(g: Graphics): void
  - resizeImage(img: BufferedImage, larghezza: int, altezza: int): BufferedImage
}

GuiStart - -> GuiGame: game
GuiGame - -> Gioco: play
Gioco - -> Comunicazione: communication
Gioco - -> Carte: carte
Gioco - -> Carte: flop

@enduml

PlantUML version 1.2022.7(Mon Aug 22 19:01:30 CEST 2022)
(GPL source distribution)
Java Runtime: OpenJDK Runtime Environment
JVM: OpenJDK 64-Bit Server VM
Default Encoding: UTF-8
Language: it
Country: IT
--></g></svg>