<?xml version="1.0" encoding="UTF-8" standalone="no"?><svg xmlns="http://www.w3.org/2000/svg" xmlns:xlink="http://www.w3.org/1999/xlink" contentStyleType="text/css" height="488px" preserveAspectRatio="none" style="width:263px;height:488px;background:#FFFFFF;" version="1.1" viewBox="0 0 263 488" width="263px" zoomAndPan="magnify"><defs/><g><rect fill="#FFFFFF" height="282.1641" style="stroke:#181818;stroke-width:1.0;" width="10" x="23" y="114.9609"/><rect fill="#FFFFFF" height="221.4609" style="stroke:#181818;stroke-width:1.0;" width="10" x="28" y="175.6641"/><rect fill="#FFFFFF" height="160.7578" style="stroke:#181818;stroke-width:1.0;" width="10" x="33" y="236.3672"/><rect fill="#FFFFFF" height="100.0547" style="stroke:#181818;stroke-width:1.0;" width="10" x="38" y="297.0703"/><rect fill="#FFFFFF" height="39.3516" style="stroke:#181818;stroke-width:1.0;" width="10" x="43" y="357.7734"/><line style="stroke:#181818;stroke-width:0.5;stroke-dasharray:5.0,5.0;" x1="28" x2="28" y1="82.6094" y2="406.125"/><line style="stroke:#181818;stroke-width:0.5;stroke-dasharray:5.0,5.0;" x1="229" x2="229" y1="82.6094" y2="406.125"/><text fill="#000000" font-family="sans-serif" font-size="14" lengthAdjust="spacing" textLength="40" x="5" y="79.5332">Player</text><ellipse cx="28" cy="13.5" fill="#E2E2F0" rx="8" ry="8" style="stroke:#181818;stroke-width:0.5;"/><path d="M28,21.5 L28,48.5 M15,29.5 L41,29.5 M28,48.5 L15,63.5 M28,48.5 L41,63.5 " fill="none" style="stroke:#181818;stroke-width:0.5;"/><text fill="#000000" font-family="sans-serif" font-size="14" lengthAdjust="spacing" textLength="40" x="5" y="419.6582">Player</text><ellipse cx="28" cy="431.2344" fill="#E2E2F0" rx="8" ry="8" style="stroke:#181818;stroke-width:0.5;"/><path d="M28,439.2344 L28,466.2344 M15,447.2344 L41,447.2344 M28,466.2344 L15,481.2344 M28,466.2344 L41,481.2344 " fill="none" style="stroke:#181818;stroke-width:0.5;"/><rect fill="#E2E2F0" height="31.6094" rx="2.5" ry="2.5" style="stroke:#181818;stroke-width:0.5;" width="56" x="201" y="50"/><text fill="#000000" font-family="sans-serif" font-size="14" lengthAdjust="spacing" textLength="42" x="208" y="71.5332">Server</text><rect fill="#E2E2F0" height="31.6094" rx="2.5" ry="2.5" style="stroke:#181818;stroke-width:0.5;" width="56" x="201" y="405.125"/><text fill="#000000" font-family="sans-serif" font-size="14" lengthAdjust="spacing" textLength="42" x="208" y="426.6582">Server</text><rect fill="#FFFFFF" height="282.1641" style="stroke:#181818;stroke-width:1.0;" width="10" x="23" y="114.9609"/><rect fill="#FFFFFF" height="221.4609" style="stroke:#181818;stroke-width:1.0;" width="10" x="28" y="175.6641"/><rect fill="#FFFFFF" height="160.7578" style="stroke:#181818;stroke-width:1.0;" width="10" x="33" y="236.3672"/><rect fill="#FFFFFF" height="100.0547" style="stroke:#181818;stroke-width:1.0;" width="10" x="38" y="297.0703"/><rect fill="#FFFFFF" height="39.3516" style="stroke:#181818;stroke-width:1.0;" width="10" x="43" y="357.7734"/><polygon fill="#181818" points="217,110.9609,227,114.9609,217,118.9609,221,114.9609" style="stroke:#181818;stroke-width:1.0;"/><line style="stroke:#181818;stroke-width:2.0;" x1="33" x2="223" y1="114.9609" y2="114.9609"/><text fill="#000000" font-family="sans-serif" font-size="13" lengthAdjust="spacing" textLength="126" x="40" y="110.1045">Fare una scommessa</text><polygon fill="#181818" points="44,141.3125,34,145.3125,44,149.3125,40,145.3125" style="stroke:#181818;stroke-width:1.0;"/><line style="stroke:#181818;stroke-width:2.0;stroke-dasharray:2.0,2.0;" x1="38" x2="228" y1="145.3125" y2="145.3125"/><text fill="#000000" font-family="sans-serif" font-size="13" lengthAdjust="spacing" textLength="130" x="50" y="140.4561">Conferma scommessa</text><polygon fill="#181818" points="217,171.6641,227,175.6641,217,179.6641,221,175.6641" style="stroke:#181818;stroke-width:1.0;"/><line style="stroke:#181818;stroke-width:2.0;" x1="38" x2="223" y1="175.6641" y2="175.6641"/><text fill="#000000" font-family="sans-serif" font-size="13" lengthAdjust="spacing" textLength="48" x="45" y="170.8076">Passare</text><polygon fill="#181818" points="49,202.0156,39,206.0156,49,210.0156,45,206.0156" style="stroke:#181818;stroke-width:1.0;"/><line style="stroke:#181818;stroke-width:2.0;stroke-dasharray:2.0,2.0;" x1="43" x2="228" y1="206.0156" y2="206.0156"/><text fill="#000000" font-family="sans-serif" font-size="13" lengthAdjust="spacing" textLength="118" x="55" y="201.1592">Conferma passaggio</text><polygon fill="#181818" points="217,232.3672,227,236.3672,217,240.3672,221,236.3672" style="stroke:#181818;stroke-width:1.0;"/><line style="stroke:#181818;stroke-width:2.0;" x1="43" x2="223" y1="236.3672" y2="236.3672"/><text fill="#000000" font-family="sans-serif" font-size="13" lengthAdjust="spacing" textLength="32" x="50" y="231.5107">Menu</text><polygon fill="#181818" points="54,262.7188,44,266.7188,54,270.7188,50,266.7188" style="stroke:#181818;stroke-width:1.0;"/><line style="stroke:#181818;stroke-width:2.0;stroke-dasharray:2.0,2.0;" x1="48" x2="228" y1="266.7188" y2="266.7188"/><text fill="#000000" font-family="sans-serif" font-size="13" lengthAdjust="spacing" textLength="162" x="60" y="261.8623">Opzioni disponibili nel menu</text><polygon fill="#181818" points="217,293.0703,227,297.0703,217,301.0703,221,297.0703" style="stroke:#181818;stroke-width:1.0;"/><line style="stroke:#181818;stroke-width:2.0;" x1="48" x2="223" y1="297.0703" y2="297.0703"/><text fill="#000000" font-family="sans-serif" font-size="13" lengthAdjust="spacing" textLength="115" x="55" y="292.2139">Consultare le regole</text><polygon fill="#181818" points="59,323.4219,49,327.4219,59,331.4219,55,327.4219" style="stroke:#181818;stroke-width:1.0;"/><line style="stroke:#181818;stroke-width:2.0;stroke-dasharray:2.0,2.0;" x1="53" x2="228" y1="327.4219" y2="327.4219"/><text fill="#000000" font-family="sans-serif" font-size="13" lengthAdjust="spacing" textLength="96" x="65" y="322.5654">Regole del gioco</text><polygon fill="#181818" points="217,353.7734,227,357.7734,217,361.7734,221,357.7734" style="stroke:#181818;stroke-width:1.0;"/><line style="stroke:#181818;stroke-width:2.0;" x1="53" x2="223" y1="357.7734" y2="357.7734"/><text fill="#000000" font-family="sans-serif" font-size="13" lengthAdjust="spacing" textLength="130" x="60" y="352.917">Abbandonare la partita</text><polygon fill="#181818" points="64,384.125,54,388.125,64,392.125,60,388.125" style="stroke:#181818;stroke-width:1.0;"/><line style="stroke:#181818;stroke-width:2.0;stroke-dasharray:2.0,2.0;" x1="58" x2="228" y1="388.125" y2="388.125"/><text fill="#000000" font-family="sans-serif" font-size="13" lengthAdjust="spacing" textLength="122" x="70" y="383.2686">Conferma abbandono</text><!--MD5=[e8648c14d1b6425cc5f9775e816cf3ef]
@startuml Diagramma delle Sequenze client-server
!define SERVER class

skinparam sequenceArrowThickness 2

actor Player as P
participant Server as S

P -> S : Fare una scommessa
activate P
S - -> P : Conferma scommessa

P -> S : Passare
activate P
S - -> P : Conferma passaggio

P -> S : Menu
activate P
S - -> P : Opzioni disponibili nel menu

P -> S : Consultare le regole
activate P
S - -> P : Regole del gioco

P -> S : Abbandonare la partita
activate P
S - -> P : Conferma abbandono
@enduml

@startuml Diagramma delle Sequenze client-server

skinparam sequenceArrowThickness 2

actor Player as P
participant Server as S

P -> S : Fare una scommessa
activate P
S - -> P : Conferma scommessa

P -> S : Passare
activate P
S - -> P : Conferma passaggio

P -> S : Menu
activate P
S - -> P : Opzioni disponibili nel menu

P -> S : Consultare le regole
activate P
S - -> P : Regole del gioco

P -> S : Abbandonare la partita
activate P
S - -> P : Conferma abbandono
@enduml

PlantUML version 1.2022.7(Mon Aug 22 19:01:30 CEST 2022)
(GPL source distribution)
Java Runtime: OpenJDK Runtime Environment
JVM: OpenJDK 64-Bit Server VM
Default Encoding: UTF-8
Language: it
Country: IT
--></g></svg>